<mxfile host="app.diagrams.net" modified="2021-05-27T06:09:26.268Z" agent="5.0 (Macintosh; Intel Mac OS X 10_15_7) AppleWebKit/537.36 (KHTML, like Gecko) Chrome/90.0.4430.93 Safari/537.36" etag="TXXYo0tODHI0p1gwV5K2" version="14.7.2" type="github">
  <diagram id="uEBJ2LFbih4l7-N4XgLi" name="Page-1">
    <mxGraphModel dx="1812" dy="592" grid="1" gridSize="10" guides="1" tooltips="1" connect="1" arrows="1" fold="1" page="1" pageScale="1" pageWidth="827" pageHeight="1169" math="0" shadow="0">
      <root>
        <mxCell id="0" />
        <mxCell id="1" parent="0" />
        <mxCell id="vFZj6HboasWms6hBBT86-53" value="" style="rounded=0;whiteSpace=wrap;html=1;strokeWidth=1;" vertex="1" parent="1">
          <mxGeometry x="-90" y="950" width="690" height="450" as="geometry" />
        </mxCell>
        <mxCell id="vFZj6HboasWms6hBBT86-52" style="edgeStyle=orthogonalEdgeStyle;rounded=0;orthogonalLoop=1;jettySize=auto;html=1;entryX=0;entryY=0.5;entryDx=0;entryDy=0;strokeWidth=2;" edge="1" parent="1" source="vFZj6HboasWms6hBBT86-38" target="vFZj6HboasWms6hBBT86-50">
          <mxGeometry relative="1" as="geometry" />
        </mxCell>
        <mxCell id="vFZj6HboasWms6hBBT86-38" value="" style="rounded=0;whiteSpace=wrap;html=1;" vertex="1" parent="1">
          <mxGeometry x="80" y="980" width="350" height="350" as="geometry" />
        </mxCell>
        <mxCell id="vFZj6HboasWms6hBBT86-36" value="" style="rounded=0;whiteSpace=wrap;html=1;dashed=1;strokeWidth=1;" vertex="1" parent="1">
          <mxGeometry y="130" width="890" height="630" as="geometry" />
        </mxCell>
        <mxCell id="vFZj6HboasWms6hBBT86-22" value="" style="rounded=0;whiteSpace=wrap;html=1;dashed=1;strokeWidth=1;fillColor=#cce5ff;strokeColor=#36393d;" vertex="1" parent="1">
          <mxGeometry x="180" y="290" width="530" height="450" as="geometry" />
        </mxCell>
        <mxCell id="vFZj6HboasWms6hBBT86-32" value="" style="rounded=0;whiteSpace=wrap;html=1;dashed=1;strokeWidth=1;fillColor=none;" vertex="1" parent="1">
          <mxGeometry x="140" y="170" width="380" height="90" as="geometry" />
        </mxCell>
        <mxCell id="vFZj6HboasWms6hBBT86-35" style="edgeStyle=orthogonalEdgeStyle;rounded=0;orthogonalLoop=1;jettySize=auto;html=1;entryX=0;entryY=0.5;entryDx=0;entryDy=0;strokeWidth=3;" edge="1" parent="1" source="vFZj6HboasWms6hBBT86-20" target="vFZj6HboasWms6hBBT86-34">
          <mxGeometry relative="1" as="geometry">
            <Array as="points">
              <mxPoint x="730" y="565" />
              <mxPoint x="730" y="330" />
            </Array>
          </mxGeometry>
        </mxCell>
        <mxCell id="vFZj6HboasWms6hBBT86-20" value="" style="rounded=0;whiteSpace=wrap;html=1;strokeWidth=1;fillColor=#f5f5f5;dashed=1;strokeColor=#666666;fontColor=#333333;" vertex="1" parent="1">
          <mxGeometry x="510" y="410" width="170" height="310" as="geometry" />
        </mxCell>
        <mxCell id="vFZj6HboasWms6hBBT86-19" style="edgeStyle=orthogonalEdgeStyle;rounded=0;orthogonalLoop=1;jettySize=auto;html=1;entryX=0.5;entryY=0;entryDx=0;entryDy=0;strokeWidth=3;" edge="1" parent="1" source="vFZj6HboasWms6hBBT86-1" target="vFZj6HboasWms6hBBT86-3">
          <mxGeometry relative="1" as="geometry" />
        </mxCell>
        <mxCell id="vFZj6HboasWms6hBBT86-1" value="&lt;font style=&quot;font-size: 16px&quot;&gt;动转静&lt;/font&gt;" style="rounded=0;whiteSpace=wrap;html=1;fillColor=#e51400;strokeWidth=5;fontColor=#ffffff;" vertex="1" parent="1">
          <mxGeometry x="200" y="310" width="130" height="60" as="geometry" />
        </mxCell>
        <mxCell id="vFZj6HboasWms6hBBT86-17" style="edgeStyle=orthogonalEdgeStyle;rounded=0;orthogonalLoop=1;jettySize=auto;html=1;entryX=0;entryY=0.5;entryDx=0;entryDy=0;fillColor=#d5e8d4;strokeColor=#82b366;strokeWidth=3;gradientColor=#97d077;" edge="1" parent="1" source="vFZj6HboasWms6hBBT86-2" target="vFZj6HboasWms6hBBT86-1">
          <mxGeometry relative="1" as="geometry" />
        </mxCell>
        <mxCell id="vFZj6HboasWms6hBBT86-18" style="edgeStyle=orthogonalEdgeStyle;rounded=0;orthogonalLoop=1;jettySize=auto;html=1;entryX=0;entryY=0.5;entryDx=0;entryDy=0;fillColor=#d5e8d4;strokeColor=#82b366;strokeWidth=3;gradientColor=#97d077;" edge="1" parent="1" source="vFZj6HboasWms6hBBT86-2" target="vFZj6HboasWms6hBBT86-4">
          <mxGeometry relative="1" as="geometry">
            <Array as="points">
              <mxPoint x="100" y="570" />
            </Array>
          </mxGeometry>
        </mxCell>
        <mxCell id="vFZj6HboasWms6hBBT86-2" value="动态图" style="rounded=0;whiteSpace=wrap;html=1;fillColor=#f8cecc;strokeColor=#b85450;" vertex="1" parent="1">
          <mxGeometry x="40" y="310" width="120" height="60" as="geometry" />
        </mxCell>
        <mxCell id="vFZj6HboasWms6hBBT86-10" style="edgeStyle=orthogonalEdgeStyle;rounded=0;orthogonalLoop=1;jettySize=auto;html=1;entryX=0;entryY=0.5;entryDx=0;entryDy=0;fillColor=#b1ddf0;strokeColor=#10739e;strokeWidth=3;" edge="1" parent="1" source="vFZj6HboasWms6hBBT86-3" target="vFZj6HboasWms6hBBT86-7">
          <mxGeometry relative="1" as="geometry" />
        </mxCell>
        <mxCell id="vFZj6HboasWms6hBBT86-16" style="edgeStyle=orthogonalEdgeStyle;rounded=0;orthogonalLoop=1;jettySize=auto;html=1;fillColor=#f0a30a;strokeColor=#BD7000;strokeWidth=3;" edge="1" parent="1" source="vFZj6HboasWms6hBBT86-3">
          <mxGeometry relative="1" as="geometry">
            <mxPoint x="265" y="620" as="targetPoint" />
            <Array as="points">
              <mxPoint x="265" y="520" />
              <mxPoint x="360" y="520" />
            </Array>
          </mxGeometry>
        </mxCell>
        <mxCell id="vFZj6HboasWms6hBBT86-3" value="inference program" style="rounded=0;whiteSpace=wrap;html=1;fillColor=#b0e3e6;strokeColor=#0e8088;" vertex="1" parent="1">
          <mxGeometry x="200" y="460" width="130" height="40" as="geometry" />
        </mxCell>
        <mxCell id="vFZj6HboasWms6hBBT86-11" style="edgeStyle=orthogonalEdgeStyle;rounded=0;orthogonalLoop=1;jettySize=auto;html=1;entryX=0;entryY=0.5;entryDx=0;entryDy=0;fillColor=#b1ddf0;strokeColor=#10739e;strokeWidth=3;" edge="1" parent="1" target="vFZj6HboasWms6hBBT86-8">
          <mxGeometry relative="1" as="geometry">
            <mxPoint x="410" y="480" as="sourcePoint" />
          </mxGeometry>
        </mxCell>
        <mxCell id="vFZj6HboasWms6hBBT86-14" style="edgeStyle=orthogonalEdgeStyle;rounded=0;orthogonalLoop=1;jettySize=auto;html=1;entryX=0.5;entryY=0;entryDx=0;entryDy=0;fillColor=#f0a30a;strokeColor=#BD7000;strokeWidth=3;" edge="1" parent="1" source="vFZj6HboasWms6hBBT86-4" target="vFZj6HboasWms6hBBT86-5">
          <mxGeometry relative="1" as="geometry" />
        </mxCell>
        <mxCell id="vFZj6HboasWms6hBBT86-4" value="state_dict" style="rounded=0;whiteSpace=wrap;html=1;fillColor=#b0e3e6;strokeColor=#0e8088;" vertex="1" parent="1">
          <mxGeometry x="200" y="550" width="130" height="40" as="geometry" />
        </mxCell>
        <mxCell id="vFZj6HboasWms6hBBT86-12" style="edgeStyle=orthogonalEdgeStyle;rounded=0;orthogonalLoop=1;jettySize=auto;html=1;entryX=0;entryY=0.5;entryDx=0;entryDy=0;fillColor=#b1ddf0;strokeColor=#10739e;strokeWidth=3;" edge="1" parent="1" source="vFZj6HboasWms6hBBT86-5" target="vFZj6HboasWms6hBBT86-9">
          <mxGeometry relative="1" as="geometry" />
        </mxCell>
        <mxCell id="vFZj6HboasWms6hBBT86-5" value="&lt;b&gt;variable information&lt;/b&gt;&lt;br&gt;&lt;font color=&quot;#000099&quot;&gt;stop_gradient&lt;br&gt;name&lt;/font&gt;" style="rounded=0;whiteSpace=wrap;html=1;fillColor=#b0e3e6;strokeColor=#0e8088;" vertex="1" parent="1">
          <mxGeometry x="200" y="640" width="130" height="60" as="geometry" />
        </mxCell>
        <mxCell id="vFZj6HboasWms6hBBT86-6" value="save_inference_model" style="rounded=0;whiteSpace=wrap;html=1;fillColor=none;" vertex="1" parent="1">
          <mxGeometry x="360" y="430" width="130" height="40" as="geometry" />
        </mxCell>
        <mxCell id="vFZj6HboasWms6hBBT86-7" value="*.pdmodel" style="rounded=0;whiteSpace=wrap;html=1;fillColor=none;" vertex="1" parent="1">
          <mxGeometry x="530" y="460" width="130" height="40" as="geometry" />
        </mxCell>
        <mxCell id="vFZj6HboasWms6hBBT86-8" value="*.pdiparams" style="rounded=0;whiteSpace=wrap;html=1;fillColor=none;" vertex="1" parent="1">
          <mxGeometry x="530" y="550" width="130" height="40" as="geometry" />
        </mxCell>
        <mxCell id="vFZj6HboasWms6hBBT86-9" value="*.pdiparams.info" style="rounded=0;whiteSpace=wrap;html=1;fillColor=none;" vertex="1" parent="1">
          <mxGeometry x="530" y="650" width="130" height="40" as="geometry" />
        </mxCell>
        <mxCell id="vFZj6HboasWms6hBBT86-21" value="&lt;font style=&quot;font-size: 15px&quot;&gt;生成文件&lt;/font&gt;" style="text;html=1;strokeColor=none;fillColor=none;align=center;verticalAlign=middle;whiteSpace=wrap;rounded=0;dashed=1;" vertex="1" parent="1">
          <mxGeometry x="560" y="420" width="70" height="20" as="geometry" />
        </mxCell>
        <mxCell id="vFZj6HboasWms6hBBT86-23" value="&lt;font style=&quot;font-size: 16px&quot;&gt;jit.save/load&lt;/font&gt;" style="text;html=1;strokeColor=none;fillColor=none;align=center;verticalAlign=middle;whiteSpace=wrap;rounded=0;dashed=1;" vertex="1" parent="1">
          <mxGeometry x="400" y="310" width="70" height="20" as="geometry" />
        </mxCell>
        <mxCell id="vFZj6HboasWms6hBBT86-28" style="edgeStyle=orthogonalEdgeStyle;rounded=0;orthogonalLoop=1;jettySize=auto;html=1;entryX=0.5;entryY=0;entryDx=0;entryDy=0;" edge="1" parent="1" source="vFZj6HboasWms6hBBT86-24" target="vFZj6HboasWms6hBBT86-1">
          <mxGeometry relative="1" as="geometry" />
        </mxCell>
        <mxCell id="vFZj6HboasWms6hBBT86-24" value="layer/function" style="rounded=0;whiteSpace=wrap;html=1;fillColor=#fad7ac;strokeColor=#b46504;" vertex="1" parent="1">
          <mxGeometry x="160" y="210" width="100" height="40" as="geometry" />
        </mxCell>
        <mxCell id="vFZj6HboasWms6hBBT86-31" style="edgeStyle=orthogonalEdgeStyle;rounded=0;orthogonalLoop=1;jettySize=auto;html=1;entryX=0.5;entryY=0;entryDx=0;entryDy=0;" edge="1" parent="1" source="vFZj6HboasWms6hBBT86-25" target="vFZj6HboasWms6hBBT86-1">
          <mxGeometry relative="1" as="geometry" />
        </mxCell>
        <mxCell id="vFZj6HboasWms6hBBT86-25" value="input_spec" style="rounded=0;whiteSpace=wrap;html=1;fillColor=#fad7ac;strokeColor=#b46504;" vertex="1" parent="1">
          <mxGeometry x="280" y="210" width="100" height="40" as="geometry" />
        </mxCell>
        <mxCell id="vFZj6HboasWms6hBBT86-30" style="edgeStyle=orthogonalEdgeStyle;rounded=0;orthogonalLoop=1;jettySize=auto;html=1;" edge="1" parent="1" source="vFZj6HboasWms6hBBT86-26" target="vFZj6HboasWms6hBBT86-22">
          <mxGeometry relative="1" as="geometry" />
        </mxCell>
        <mxCell id="vFZj6HboasWms6hBBT86-26" value="input_spec" style="rounded=0;whiteSpace=wrap;html=1;fillColor=#fad7ac;strokeColor=#b46504;" vertex="1" parent="1">
          <mxGeometry x="395" y="210" width="100" height="40" as="geometry" />
        </mxCell>
        <mxCell id="vFZj6HboasWms6hBBT86-33" value="&lt;font style=&quot;font-size: 15px&quot;&gt;输入&lt;/font&gt;" style="text;html=1;strokeColor=none;fillColor=none;align=center;verticalAlign=middle;whiteSpace=wrap;rounded=0;dashed=1;" vertex="1" parent="1">
          <mxGeometry x="295" y="180" width="70" height="20" as="geometry" />
        </mxCell>
        <mxCell id="vFZj6HboasWms6hBBT86-34" value="预测" style="rounded=0;whiteSpace=wrap;html=1;fillColor=#d5e8d4;strokeColor=#82b366;" vertex="1" parent="1">
          <mxGeometry x="750" y="300" width="120" height="60" as="geometry" />
        </mxCell>
        <mxCell id="vFZj6HboasWms6hBBT86-42" style="edgeStyle=orthogonalEdgeStyle;rounded=0;orthogonalLoop=1;jettySize=auto;html=1;entryX=0.5;entryY=0;entryDx=0;entryDy=0;strokeWidth=2;" edge="1" parent="1" source="vFZj6HboasWms6hBBT86-39" target="vFZj6HboasWms6hBBT86-40">
          <mxGeometry relative="1" as="geometry" />
        </mxCell>
        <mxCell id="vFZj6HboasWms6hBBT86-39" value="jit.save" style="rounded=0;whiteSpace=wrap;html=1;strokeWidth=1;fillColor=#dae8fc;strokeColor=#6c8ebf;" vertex="1" parent="1">
          <mxGeometry x="120" y="1040" width="120" height="50" as="geometry" />
        </mxCell>
        <mxCell id="vFZj6HboasWms6hBBT86-45" style="edgeStyle=orthogonalEdgeStyle;rounded=0;orthogonalLoop=1;jettySize=auto;html=1;entryX=0.5;entryY=0;entryDx=0;entryDy=0;strokeWidth=2;" edge="1" parent="1" source="vFZj6HboasWms6hBBT86-40" target="vFZj6HboasWms6hBBT86-44">
          <mxGeometry relative="1" as="geometry" />
        </mxCell>
        <mxCell id="vFZj6HboasWms6hBBT86-40" value="model" style="rounded=0;whiteSpace=wrap;html=1;strokeWidth=1;fillColor=#f5f5f5;strokeColor=#666666;fontColor=#333333;" vertex="1" parent="1">
          <mxGeometry x="115" y="1150" width="130" height="50" as="geometry" />
        </mxCell>
        <mxCell id="vFZj6HboasWms6hBBT86-43" style="edgeStyle=orthogonalEdgeStyle;rounded=0;orthogonalLoop=1;jettySize=auto;html=1;entryX=1;entryY=0.5;entryDx=0;entryDy=0;strokeWidth=2;" edge="1" parent="1" source="vFZj6HboasWms6hBBT86-41" target="vFZj6HboasWms6hBBT86-40">
          <mxGeometry relative="1" as="geometry" />
        </mxCell>
        <mxCell id="vFZj6HboasWms6hBBT86-41" value="&lt;span style=&quot;font-family: &amp;#34;source code pro&amp;#34; , monospace ; font-size: 14.4px ; text-align: left ; background-color: rgb(254 , 254 , 254)&quot;&gt;&lt;b&gt;量化参数&lt;/b&gt;&lt;br&gt;&lt;font color=&quot;#c7254e&quot;&gt;skip_quant&lt;/font&gt;&lt;br&gt;&lt;/span&gt;&lt;span style=&quot;color: rgb(199 , 37 , 78) ; font-family: &amp;#34;source code pro&amp;#34; , monospace ; font-size: 14.4px ; text-align: left ; background-color: rgb(254 , 254 , 254)&quot;&gt;out_threshold&lt;/span&gt;&lt;span style=&quot;color: rgb(199 , 37 , 78) ; font-family: &amp;#34;source code pro&amp;#34; , monospace ; font-size: 14.4px ; text-align: left ; background-color: rgb(254 , 254 , 254)&quot;&gt;&lt;br&gt;&lt;/span&gt;" style="rounded=0;whiteSpace=wrap;html=1;strokeWidth=1;fillColor=none;" vertex="1" parent="1">
          <mxGeometry x="275" y="1145" width="120" height="60" as="geometry" />
        </mxCell>
        <mxCell id="vFZj6HboasWms6hBBT86-44" value="jit.save" style="rounded=0;whiteSpace=wrap;html=1;strokeWidth=1;fillColor=#dae8fc;strokeColor=#6c8ebf;" vertex="1" parent="1">
          <mxGeometry x="115" y="1250" width="130" height="50" as="geometry" />
        </mxCell>
        <mxCell id="vFZj6HboasWms6hBBT86-46" value="&lt;span style=&quot;font-family: &amp;#34;source code pro&amp;#34; , monospace ; text-align: left ; background-color: rgb(254 , 254 , 254)&quot;&gt;&lt;font style=&quot;font-size: 16px&quot;&gt;save_quantized_model&lt;/font&gt;&lt;/span&gt;" style="text;html=1;strokeColor=none;fillColor=none;align=center;verticalAlign=middle;whiteSpace=wrap;rounded=0;" vertex="1" parent="1">
          <mxGeometry x="150" y="1000" width="190" height="20" as="geometry" />
        </mxCell>
        <mxCell id="vFZj6HboasWms6hBBT86-51" style="edgeStyle=orthogonalEdgeStyle;rounded=0;orthogonalLoop=1;jettySize=auto;html=1;entryX=0;entryY=0.5;entryDx=0;entryDy=0;strokeWidth=2;" edge="1" parent="1" source="vFZj6HboasWms6hBBT86-48" target="vFZj6HboasWms6hBBT86-38">
          <mxGeometry relative="1" as="geometry" />
        </mxCell>
        <mxCell id="vFZj6HboasWms6hBBT86-48" value="动态图" style="rounded=0;whiteSpace=wrap;html=1;fillColor=#f8cecc;strokeColor=#b85450;" vertex="1" parent="1">
          <mxGeometry x="-80" y="1125" width="120" height="60" as="geometry" />
        </mxCell>
        <mxCell id="vFZj6HboasWms6hBBT86-50" value="预测" style="rounded=0;whiteSpace=wrap;html=1;fillColor=#d5e8d4;strokeColor=#82b366;" vertex="1" parent="1">
          <mxGeometry x="470" y="1125" width="120" height="60" as="geometry" />
        </mxCell>
      </root>
    </mxGraphModel>
  </diagram>
</mxfile>
